<svg width="385" height="627" viewBox="0 0 385 627" fill="none" xmlns="http://www.w3.org/2000/svg">
<g clip-path="url(#clip0_136_3367)">
<path fill-rule="evenodd" clip-rule="evenodd" d="M331.388 873.657C389.877 835.313 379.315 747.689 406.772 683.367C433.599 620.521 506.484 567.984 490.199 501.62C473.874 435.089 382.103 425.191 331.967 378.51C280.459 330.552 260.843 247.31 193.864 225.707C123.143 202.898 36.5604 216.824 -20.03 264.983C-74.5802 311.406 -57.545 398.235 -86.0751 463.937C-114.182 528.666 -191.925 574.924 -185.116 645.163C-178.252 715.961 -110.849 764.694 -52.9183 805.968C-0.180145 843.542 62.6735 855.908 126.446 867.141C195.447 879.294 272.794 912.07 331.388 873.657Z" stroke="#333333" stroke-width="2"/>
<path fill-rule="evenodd" clip-rule="evenodd" d="M312.456 842.687C364.931 808.286 355.455 729.673 380.089 671.965C404.157 615.581 469.547 568.446 454.937 508.907C440.29 449.217 357.956 440.337 312.975 398.456C266.764 355.43 249.165 280.747 189.073 261.366C125.624 240.902 47.9454 253.396 -2.82578 296.603C-51.7666 338.252 -36.4832 416.152 -62.0795 475.099C-87.2965 533.171 -157.045 574.673 -150.936 637.689C-144.778 701.207 -84.3061 744.929 -32.3322 781.958C14.9829 815.669 71.3733 826.764 128.588 836.841C190.494 847.745 259.887 877.15 312.456 842.687Z" stroke="#333333" stroke-width="2"/>
<path fill-rule="evenodd" clip-rule="evenodd" d="M350.023 904.142C414.433 861.917 402.802 765.424 433.038 694.591C462.581 625.384 542.842 567.528 524.909 494.448C506.932 421.183 405.872 410.283 350.661 358.876C293.94 306.065 272.338 214.396 198.579 190.607C120.7 165.49 25.3538 180.825 -36.9645 233.859C-97.0362 284.98 -78.2767 380.598 -109.695 452.951C-140.647 524.231 -226.258 575.171 -218.76 652.52C-211.202 730.484 -136.976 784.149 -73.1817 829.601C-15.1055 870.978 54.1101 884.597 124.338 896.966C200.323 910.35 285.498 946.442 350.023 904.142Z" stroke="#333333" stroke-width="2"/>
<path fill-rule="evenodd" clip-rule="evenodd" d="M369.87 936.607C440.584 890.249 427.814 784.31 461.01 706.544C493.445 630.562 581.563 567.044 561.875 486.809C542.137 406.373 431.185 394.406 370.569 337.967C308.296 279.986 284.58 179.344 203.601 153.227C118.098 125.65 13.419 142.487 -54.9994 200.712C-120.951 256.838 -100.356 361.815 -134.849 441.25C-168.831 519.508 -262.822 575.435 -254.59 660.354C-246.293 745.951 -164.801 804.869 -94.7619 854.77C-31.0007 900.197 44.9901 915.149 122.092 928.729C205.515 943.423 299.028 983.048 369.87 936.607Z" stroke="#333333" stroke-width="2"/>
</g>
<defs>
<clipPath id="clip0_136_3367">
<rect width="390" height="627" fill="white" transform="matrix(-1 0 0 1 390 0)"/>
</clipPath>
</defs>
</svg>
